<svg width="204" height="6" viewBox="0 0 204 6" fill="none" xmlns="http://www.w3.org/2000/svg">
<circle cx="179" cy="3" r="3" fill="url(#paint0_linear_936_1805)"/>
<circle cx="135" cy="3" r="3" fill="url(#paint1_linear_936_1805)"/>
<circle cx="91" cy="3" r="3" fill="url(#paint2_linear_936_1805)"/>
<circle cx="47" cy="3" r="3" fill="url(#paint3_linear_936_1805)"/>
<circle cx="3" cy="3" r="3" fill="url(#paint4_linear_936_1805)"/>
<circle cx="201" cy="3" r="3" fill="url(#paint5_linear_936_1805)"/>
<circle cx="157" cy="3" r="3" fill="url(#paint6_linear_936_1805)"/>
<circle cx="113" cy="3" r="3" fill="url(#paint7_linear_936_1805)"/>
<circle cx="69" cy="3" r="3" fill="url(#paint8_linear_936_1805)"/>
<circle cx="25" cy="3" r="3" fill="url(#paint9_linear_936_1805)"/>
<defs>
<linearGradient id="paint0_linear_936_1805" x1="179" y1="0" x2="179" y2="6" gradientUnits="userSpaceOnUse">
<stop stop-color="#7E00E1"/>
<stop offset="1" stop-color="#446EB7"/>
</linearGradient>
<linearGradient id="paint1_linear_936_1805" x1="135" y1="0" x2="135" y2="6" gradientUnits="userSpaceOnUse">
<stop stop-color="#7E00E1"/>
<stop offset="1" stop-color="#446EB7"/>
</linearGradient>
<linearGradient id="paint2_linear_936_1805" x1="91" y1="0" x2="91" y2="6" gradientUnits="userSpaceOnUse">
<stop stop-color="#7E00E1"/>
<stop offset="1" stop-color="#446EB7"/>
</linearGradient>
<linearGradient id="paint3_linear_936_1805" x1="47" y1="0" x2="47" y2="6" gradientUnits="userSpaceOnUse">
<stop stop-color="#7E00E1"/>
<stop offset="1" stop-color="#446EB7"/>
</linearGradient>
<linearGradient id="paint4_linear_936_1805" x1="3" y1="0" x2="3" y2="6" gradientUnits="userSpaceOnUse">
<stop stop-color="#7E00E1"/>
<stop offset="1" stop-color="#446EB7"/>
</linearGradient>
<linearGradient id="paint5_linear_936_1805" x1="201" y1="0" x2="201" y2="6" gradientUnits="userSpaceOnUse">
<stop stop-color="#7E00E1"/>
<stop offset="1" stop-color="#446EB7"/>
</linearGradient>
<linearGradient id="paint6_linear_936_1805" x1="157" y1="0" x2="157" y2="6" gradientUnits="userSpaceOnUse">
<stop stop-color="#7E00E1"/>
<stop offset="1" stop-color="#446EB7"/>
</linearGradient>
<linearGradient id="paint7_linear_936_1805" x1="113" y1="0" x2="113" y2="6" gradientUnits="userSpaceOnUse">
<stop stop-color="#7E00E1"/>
<stop offset="1" stop-color="#446EB7"/>
</linearGradient>
<linearGradient id="paint8_linear_936_1805" x1="69" y1="0" x2="69" y2="6" gradientUnits="userSpaceOnUse">
<stop stop-color="#7E00E1"/>
<stop offset="1" stop-color="#446EB7"/>
</linearGradient>
<linearGradient id="paint9_linear_936_1805" x1="25" y1="0" x2="25" y2="6" gradientUnits="userSpaceOnUse">
<stop stop-color="#7E00E1"/>
<stop offset="1" stop-color="#446EB7"/>
</linearGradient>
</defs>
</svg>
