<svg width="49" height="50" viewBox="0 0 49 50" fill="none" xmlns="http://www.w3.org/2000/svg">
<circle cx="24.145" cy="24.9153" r="23.335" fill="url(#paint0_linear_934_2566)" stroke="white" stroke-width="1.62"/>
<path d="M37.8272 20.9303H32.0591H28.1692H24.9498H21.2015H17.7063H13.9066C10.3779 20.6427 9.60881 22.0088 9.66535 22.7278V35.43C9.52964 36.6762 11.3053 36.9878 12.2101 36.9878H37.8272V20.9303Z" stroke="white" stroke-width="1.76471"/>
<path d="M20.9257 21.5896H18.5112L20.1208 24.8089H22.5353L20.9257 21.5896Z" fill="white" stroke="white" stroke-width="1.13208"/>
<path d="M15.2918 21.5896H12.8773L14.487 24.8089H16.9015L15.2918 21.5896Z" fill="white" stroke="white" stroke-width="1.13208"/>
<path d="M26.5595 21.5896H24.145L25.7547 24.8089H28.1692L26.5595 21.5896Z" fill="white" stroke="white" stroke-width="1.13208"/>
<path d="M32.1933 21.5896H29.7788L31.3885 24.8089H33.803L32.1933 21.5896Z" fill="white" stroke="white" stroke-width="1.13208"/>
<path d="M20.4151 18.4593L18.0578 18.9817L19.044 15.9919L21.4013 15.4696L20.4151 18.4593Z" fill="white" stroke="white" stroke-width="1.13208"/>
<path d="M14.9147 19.6781L12.5574 20.2004L13.5436 17.2107L15.9009 16.6883L14.9147 19.6781Z" fill="white" stroke="white" stroke-width="1.13208"/>
<path d="M25.9155 17.2406L23.5582 17.7629L24.5444 14.7732L26.9018 14.2508L25.9155 17.2406Z" fill="white" stroke="white" stroke-width="1.13208"/>
<path d="M31.4159 16.0216L29.0586 16.5439L30.0449 13.5542L32.4022 13.0318L31.4159 16.0216Z" fill="white" stroke="white" stroke-width="1.13208"/>
<path d="M36.5077 15.6101L9.65795 21.2934L8.83129 15.6685L35.3492 10.0966L36.5077 15.6101Z" stroke="white" stroke-width="1.76471"/>
<defs>
<linearGradient id="paint0_linear_934_2566" x1="24.145" y1="0.770264" x2="24.145" y2="49.0603" gradientUnits="userSpaceOnUse">
<stop stop-color="#7E00E1"/>
<stop offset="1" stop-color="#446EB7"/>
</linearGradient>
</defs>
</svg>
