<svg width="61" height="60" viewBox="0 0 61 60" fill="none" xmlns="http://www.w3.org/2000/svg">
<circle cx="30.5173" cy="29.8861" r="28.8861" fill="url(#paint0_linear_905_1847)" stroke="white" stroke-width="2"/>
<path d="M30.5174 47.9554C25.9589 42.0945 17.7192 39.9057 14.1692 39.5439V18.0402M30.5174 47.9554V22.653C28.2789 20.1205 21.8752 14.9334 14.1692 14.4449V18.0402M30.5174 47.9554V49.3121C27.4425 49.2355 20.2042 45.5222 19.6638 45.242C14.1692 42.3929 12.5774 43.8007 10.3026 42.3929V18.0402H14.1692" stroke="white"/>
<path d="M30.5174 47.9554C35.0759 42.0945 43.3156 39.9057 46.8656 39.5439V18.0402M30.5174 47.9554V22.653C32.7559 20.1205 39.1595 14.9334 46.8656 14.4449V18.0402M30.5174 47.9554V49.3121C33.5923 49.2355 40.8306 45.5222 41.371 45.242C46.8656 42.3929 48.4574 43.8007 50.7322 42.3929V18.0402H46.8656" stroke="white"/>
<defs>
<linearGradient id="paint0_linear_905_1847" x1="30.5173" y1="0" x2="30.5173" y2="59.7722" gradientUnits="userSpaceOnUse">
<stop stop-color="#7E00E1"/>
<stop offset="1" stop-color="#446EB7"/>
</linearGradient>
</defs>
</svg>
