<svg width="253" height="316" viewBox="0 0 253 316" fill="none" xmlns="http://www.w3.org/2000/svg">
<path d="M125 250C55.9058 250 0 194.011 0 125C0 55.9058 55.9887 0 125 0C194.094 0 250 55.9887 250 125C250.083 194.094 194.094 250 125 250Z" fill="url(#paint0_linear_905_794)"/>
<path d="M195 230.256C194.417 230.673 193.75 231.089 193.167 231.506C192.5 231.923 191.917 232.339 191.25 232.673C190.667 233.006 190.167 233.339 189.583 233.673C189.5 233.756 189.417 233.756 189.333 233.839C187.417 235.006 185.417 236.089 183.417 237.089C182.833 237.423 182.167 237.756 181.583 238.006C181.583 238.006 181.5 238.089 181.417 238.089C180.75 238.423 180.083 238.756 179.417 239.089C178.083 239.756 176.667 240.339 175.333 240.923C174.667 241.256 173.917 241.506 173.25 241.756C172.583 242.006 171.833 242.339 171.167 242.589C170.5 242.839 169.75 243.173 169.083 243.423C169.083 243.423 169.083 243.423 169 243.423C168.333 243.673 167.583 243.923 166.917 244.173C165.417 244.673 163.833 245.173 162.333 245.673C161.833 245.839 161.25 246.006 160.75 246.173C159.167 246.673 157.583 247.089 156 247.423C155.417 247.589 154.833 247.673 154.167 247.839C152.667 248.173 151.083 248.506 149.583 248.839C149.25 248.923 149 248.923 148.667 249.006C148.167 249.089 147.583 249.173 147.083 249.256C146.333 249.339 145.667 249.506 144.917 249.589C144.583 249.673 144.25 249.673 143.917 249.756C143.5 249.839 143 249.923 142.5 249.923C141.167 250.089 139.75 250.256 138.417 250.423C138 250.506 137.5 250.506 137.083 250.589H137C136.417 250.673 135.833 250.673 135.25 250.756C134.667 250.839 134.083 250.839 133.5 250.839C133.167 250.839 132.75 250.923 132.417 250.923C131.75 250.923 131.167 251.006 130.583 251.006C129.75 251.006 129 251.089 128.167 251.089C127.333 251.089 126.583 251.089 125.75 251.089C125.167 251.089 124.583 251.089 124 251.089C88.9166 250.589 57.2499 235.673 34.75 212.006C34.75 212.006 34.75 211.923 34.6666 211.923C37.25 206.839 46.8333 197.673 56.8333 190.089C69.4999 180.506 87.4166 174.589 87.4166 174.589C87.4166 174.589 99.1666 172.673 142.75 181.756C176 188.756 190.167 217.173 195 230.256Z" fill="#F7D3B5"/>
<path d="M152 204.839C150.25 213.423 138.917 218.506 119.833 210.839C96.4168 201.34 87.4168 174.59 87.4168 174.59C86.1668 155.423 83.2501 139.006 83.2501 139.006C110.333 136.673 142.333 168.34 142.333 168.34L146 184.006C146.333 185.34 147 186.506 148 187.34C149.75 190.339 153.167 199.339 152 204.839Z" fill="#F7D3B5"/>
<path d="M148 187.423C132.083 186.59 116.538 179.712 108.269 156.635C127.692 167.212 130.884 171.122 144.134 172.789L145.481 181.347C145.814 182.763 147 186.59 148 187.423Z" fill="#EFBDA5"/>
<path d="M180.916 87.0062C182.416 94.0062 183.166 99.6729 179.083 118.34C175.769 141.346 171.634 165.481 151.442 173.75C127.5 173.75 119.711 165.481 111.25 161.25C92.8844 145 95.5767 154.904 90.9613 142.789C87.2946 136.705 83.6665 144.09 78.9165 138.84C72.3332 131.673 64.4165 117.256 68.3332 91.7562C74.6665 50.2562 115.75 45.5062 140 50.0895C164.25 54.6729 176.833 68.5062 180.916 87.0062Z" fill="#F7D3B5"/>
<path d="M101.167 119.59C101.167 119.59 98.5833 107.09 86.4167 108.59C75.9167 109.923 72.25 135.09 96.0833 142.09" fill="#F7D3B5"/>
<path d="M95.3335 130.673C95.3335 130.673 92.3335 128.756 92.6668 125.423C93.1668 121.506 92.6668 119.09 90.8335 118.34C86.2501 116.423 85.3335 121.756 85.5001 122.423" stroke="#423232" stroke-width="2.59204" stroke-miterlimit="10" stroke-linecap="round" stroke-linejoin="round"/>
<path d="M156.802 139.64C156.802 139.64 159.279 139.668 162.279 136.085C163.945 134.085 163.772 133.664 162.855 132.914C161.938 132.081 150.98 134.085 149.98 136.085C148.98 138.085 152.969 139.64 156.802 139.64Z" fill="#EFBDA5"/>
<path d="M161.417 110.756C161.417 110.756 157.379 120.581 161.417 129.516C165.642 133.744 163.432 136.818 155.169 139.028" stroke="#423232" stroke-width="2.59204" stroke-miterlimit="10" stroke-linecap="round" stroke-linejoin="round"/>
<path opacity="0.42" d="M116.25 143.006C120.99 143.006 124.833 139.835 124.833 135.923C124.833 132.011 120.99 128.84 116.25 128.84C111.509 128.84 107.666 132.011 107.666 135.923C107.666 139.835 111.509 143.006 116.25 143.006Z" fill="#ED938A"/>
<path opacity="0.42" d="M177.75 129.006C177.5 133.673 177.583 138.256 177.25 142.839C173.583 142.006 170.917 139.256 170.917 136.006C170.917 132.506 173.833 129.673 177.75 129.006Z" fill="#ED938A"/>
<path d="M150.1 180C150.1 180 137.6 183.667 120.266 178C102.933 172.333 86.0164 157.417 86.0164 157.417C86.0164 157.417 80.5164 157.5 78.4331 161.667C76.4331 165.833 76.5164 174.417 73.3497 176.75C72.5997 177.25 70.5164 177.833 67.4331 178.667C62.4331 180.083 55.0164 182.25 47.5164 186.5C41.9331 189.667 36.2664 193.917 31.5164 199.75C29.3497 202.417 27.4331 205.417 25.7664 208.833C12.5997 235.583 18.2664 273.083 18.2664 273.083H221.933C221.933 273.083 216.016 226.75 203.266 211.5C190.516 196.25 166.183 183.917 159.016 180.667V175.833C159.1 175.833 154.683 178.75 150.1 180Z" fill="#1F1F1F"/>
<path d="M150.1 180C150.1 180 137.6 183.667 120.266 178C102.933 172.333 86.0164 157.417 86.0164 157.417C86.0164 157.417 80.5164 157.5 78.4331 161.667C76.4331 165.833 76.5164 174.417 73.3497 176.75C72.5997 177.25 70.5164 177.833 67.4331 178.667C62.4331 180.083 55.0164 182.25 47.5164 186.5C41.9331 189.667 36.2664 193.917 31.5164 199.75C29.3497 202.417 27.4331 205.417 25.7664 208.833C12.5997 235.583 18.2664 273.083 18.2664 273.083H221.933C221.933 273.083 216.016 226.75 203.266 211.5C190.516 196.25 166.183 183.917 159.016 180.667V175.833C159.1 175.833 154.683 178.75 150.1 180Z" fill="url(#paint1_linear_905_794)"/>
<path d="M145.192 180.866L144.135 173.462C146.635 173.654 148.046 173.658 149.327 173.75C151.25 173.75 151.596 173.88 153.269 172.885C154.038 172.885 155.577 173.398 155.865 173.462C156.39 173.578 157.5 174.039 158.461 174.327C159.744 174.712 159.711 175.866 159.711 175.866L158.654 176.346C158.654 176.346 151.923 180.481 145.192 180.866Z" fill="#131313"/>
<path d="M159.1 180.667C159.1 180.667 160.183 188.167 158.267 192.417C155.183 199.417 133.767 207.417 107.85 198.083C87.2667 190.667 77.1833 180.417 76.9333 178.833" stroke="black" stroke-width="2.59204" stroke-miterlimit="10" stroke-linecap="round" stroke-linejoin="round"/>
<path d="M92.5163 165.917C92.0996 166.417 91.6829 167.083 91.3496 167.917C90.1829 170.75 89.8496 176.667 89.8496 176.667" stroke="black" stroke-width="2.59204" stroke-miterlimit="10" stroke-linecap="round" stroke-linejoin="round"/>
<path d="M106.6 174.5C106.267 175.167 105.933 175.917 105.767 176.75C105.35 178.917 104.85 185.75 104.85 185.75" stroke="black" stroke-width="2.59204" stroke-miterlimit="10" stroke-linecap="round" stroke-linejoin="round"/>
<path d="M120.767 180.333C120.6 181 120.434 181.833 120.35 182.833C120.184 184 120.267 191.083 120.267 191.083" stroke="black" stroke-width="2.59204" stroke-miterlimit="10" stroke-linecap="round" stroke-linejoin="round"/>
<path d="M135.934 183.667C136.1 185.583 136.184 188.25 135.934 191.5" stroke="black" stroke-width="2.59204" stroke-miterlimit="10" stroke-linecap="round" stroke-linejoin="round"/>
<path d="M148.683 183C148.933 184.584 149.183 186.75 149.266 189.5" stroke="black" stroke-width="2.59204" stroke-miterlimit="10" stroke-linecap="round" stroke-linejoin="round"/>
<path d="M83.4335 157.75C81.4335 158.5 78.7668 160.5 77.7668 166.334" stroke="black" stroke-width="2.59204" stroke-miterlimit="10" stroke-linecap="round" stroke-linejoin="round"/>
<path d="M168.933 185.584C164.683 183.25 161.183 181.584 159.1 180.667V177.02C158.9 175.846 158.6 174.3 155 173.5" stroke="black" stroke-width="2.59204" stroke-miterlimit="10" stroke-linecap="round" stroke-linejoin="round"/>
<path d="M134.56 113.509C134.56 113.593 134.56 113.676 134.56 113.676L134.477 116.009C134.394 118.009 132.727 119.509 130.727 119.426C128.727 119.343 127.227 117.593 127.394 115.676L127.477 113.343C127.477 112.926 127.644 112.426 127.81 112.093L134.477 112.426C134.477 112.759 134.56 113.093 134.56 113.509Z" fill="#423232"/>
<path d="M169.392 115.343L169.309 117.509C169.226 119.343 167.642 120.759 165.809 120.676C163.976 120.593 162.559 119.009 162.642 117.176L162.726 115.009C162.726 114.593 162.809 114.176 162.976 113.843L169.226 114.093C169.392 114.509 169.392 114.926 169.392 115.343Z" fill="#423232"/>
<path d="M142.893 102.093C144.726 102.343 146.143 100.426 145.476 98.5928C145.143 97.5928 144.559 96.6761 143.643 96.0928C140.809 94.3428 130.226 94.1761 124.643 98.1761C119.726 101.843 134.559 100.926 142.893 102.093Z" fill="#423232"/>
<path d="M165.976 103.009C164.476 103.009 163.559 101.093 164.309 99.5094C164.726 98.676 165.309 97.926 166.142 97.5094C168.726 96.2594 175.643 97.0094 178.726 101.259C181.476 105.009 172.893 102.926 165.976 103.009Z" fill="#423232"/>
<path d="M126.226 112.01L127.726 112.093L134.393 112.343L139.976 112.593C140.913 112.722 142.788 112.401 142.788 110.481" stroke="#423232" stroke-width="2.59204" stroke-miterlimit="10" stroke-linecap="round" stroke-linejoin="round"/>
<path d="M162.726 113.843H162.976L169.226 114.093L172.893 114.26C172.893 114.26 174.327 114.26 175.288 112.885" stroke="#423232" stroke-width="2.59204" stroke-miterlimit="10" stroke-linecap="round" stroke-linejoin="round"/>
<path d="M153.386 148.408C148.461 151.346 139.734 148.149 135.673 143.224" stroke="#423232" stroke-width="2.59204" stroke-miterlimit="10" stroke-linecap="round" stroke-linejoin="round"/>
<path d="M188 132.308C187.64 127.5 185.697 120 187.64 110.837C192.64 87.254 195.89 61.754 166.723 46.6707C133.89 29.6707 87.9735 36.5874 70.8902 57.5874C56.3902 75.254 58.9997 82.9207 58.9997 97.5003C61.9996 115.421 58.9998 142.087 47.4998 172.981C70.7497 183.398 84.1401 190.421 108.89 191.921C113.547 180.48 111.386 166.253 107 158C103 154 101.309 152.086 100.5 151C99.0085 149 94.6401 143.587 94.8068 142.087C71.7235 134.837 75.4735 110.171 85.8901 108.837C93.1401 107.921 96.9735 112.004 98.8901 115.421C99.0568 115.921 99.3068 116.337 99.5568 116.837C102.723 122.254 119.473 117.337 130.723 104.254C142.807 90.254 141.89 91.3374 147.973 82.9207C160.223 66.0874 169.999 81.0002 169.999 81.0002C172.499 83.0798 178.473 95.0002 179.5 98.0002C181 99.5002 179.367 112.422 178.473 118.421C177.701 123.608 177.98 127.212 176.826 132.308C176.624 133.409 176.419 134.616 176.249 135.577C176.144 136.176 175.897 136.827 175.673 137.885C175.591 138.27 175.623 138.337 175.48 138.846C173.749 145 173.104 148.515 169.999 155.289C168.942 157.596 168.551 157.792 167.499 159.712C164.423 164.423 163.499 165.25 163.173 165.577C161.281 167.469 160.302 168.362 158.461 169.712C157.019 170.77 153.076 172.981 153.076 172.981C153.076 172.981 158.461 173.173 160.096 176.635C160.578 177.656 160 180 160 180L169.134 184.231C169.134 184.231 176.826 189.223 185.49 189.223C191.711 169.712 193.333 142.725 188 132.308Z" fill="#121212"/>
<path d="M95.9999 164C131 128.5 113.5 91.5003 123 87.0003C123 87.0003 128.5 62.6668 123 70.0002C118.833 77.0002 87.7679 102.316 100.115 117.535C110.161 129.917 95.9999 164 95.9999 164Z" fill="#121212"/>
<path d="M190 110C190 110 202.974 110.921 194.64 89.754C190.057 78.0873 189.807 64.8373 185.057 56.3373C178.474 44.5873 167.974 41.0873 152.474 44.3373C130.364 48.9665 147.601 61.6143 155.999 75.5002C158.499 76.0002 179.974 67.5002 180.974 71.0002C179.377 69.9838 181.433 71.3063 180.974 71.0002C180.474 68.0002 183.218 72.4282 180.974 71.0002C179.296 70.03 182.076 75.1728 180.974 71.0002C185.859 80.1291 190 110 190 110Z" fill="#121212"/>
<path d="M187.404 135.146C192.955 113.036 183.333 98.0002 181.5 91.5002C178 75.0002 170.677 41.9422 177.856 48.0003C187.856 56.4377 199.817 68.5557 202.5 96.5003C206.642 139.644 181.415 157.478 175.249 168.645C179.582 157.812 186.084 140.403 187.404 135.146Z" fill="#121212"/>
<circle cx="90.3079" cy="136.366" r="1.34615" fill="url(#paint2_linear_905_794)"/>
<circle cx="89.9231" cy="135.789" r="0.384615" fill="white"/>
<rect x="85.7264" y="143.235" width="6.53846" height="6.53846" transform="rotate(-45 85.7264 143.235)" stroke="url(#paint3_linear_905_794)" stroke-width="2.11538"/>
<defs>
<linearGradient id="paint0_linear_905_794" x1="125" y1="0" x2="125" y2="250" gradientUnits="userSpaceOnUse">
<stop stop-color="#6E16FF"/>
<stop offset="1" stop-color="#EA7C3E"/>
</linearGradient>
<linearGradient id="paint1_linear_905_794" x1="119" y1="273" x2="119" y2="200.5" gradientUnits="userSpaceOnUse">
<stop stop-color="#101010"/>
<stop offset="1" stop-opacity="0"/>
</linearGradient>
<linearGradient id="paint2_linear_905_794" x1="90.3079" y1="135.02" x2="90.3079" y2="137.712" gradientUnits="userSpaceOnUse">
<stop stop-color="#EB00FF"/>
<stop offset="1" stop-color="#FFA800"/>
</linearGradient>
<linearGradient id="paint3_linear_905_794" x1="88.5575" y1="143.235" x2="88.5575" y2="151.889" gradientUnits="userSpaceOnUse">
<stop stop-color="#EB00FF"/>
<stop offset="1" stop-color="#FFA800"/>
</linearGradient>
</defs>
</svg>
